<svg width="112" height="292" viewBox="0 0 112 292" fill="none" xmlns="http://www.w3.org/2000/svg">
<mask id="mask0_2_609" style="mask-type:alpha" maskUnits="userSpaceOnUse" x="44" y="197" width="53" height="35">
<path d="M49.8008 207.607C59.4214 198.472 84.6505 197.352 96.6766 197.6C89.0553 208.87 72.9798 228.868 61.6385 230.949C46.5723 233.713 37.775 219.026 49.8008 207.607Z" fill="#849A72"/>
</mask>
<g mask="url(#mask0_2_609)">
<path d="M49.8008 207.607C59.4214 198.472 84.6505 197.352 96.6766 197.6C89.0553 208.87 72.9798 228.868 61.6385 230.949C46.5723 233.713 37.775 219.026 49.8008 207.607Z" fill="#849A72"/>
<path d="M96.6627 197.614C86.0951 204.665 61.2632 220.16 46.4763 225.735" stroke="#145855" stroke-width="0.8" stroke-linecap="round" stroke-linejoin="round"/>
<path d="M47.9038 209.943L65.0989 216.562V229.483" stroke="#145855" stroke-width="0.8" stroke-linecap="round" stroke-linejoin="round"/>
<path d="M58.8099 202.791L76.8852 209.894L77.844 219.886" stroke="#145855" stroke-width="0.8" stroke-linecap="round" stroke-linejoin="round"/>
<path d="M74.8131 198.935L87.0624 203.708V209.943" stroke="#145855" stroke-width="0.8" stroke-linecap="round" stroke-linejoin="round"/>
</g>
<mask id="mask1_2_609" style="mask-type:alpha" maskUnits="userSpaceOnUse" x="0" y="146" width="79" height="37">
<path d="M15.8845 147.989C34.4058 142.892 65.3042 154.61 78.4382 161.106C62.3117 169.791 42.628 185.035 18.9553 181.733C-2.62891 178.722 -7.26716 154.36 15.8845 147.989Z" fill="#849A72"/>
</mask>
<g mask="url(#mask1_2_609)">
<path d="M15.8845 147.989C34.4058 142.892 65.3042 154.61 78.4382 161.106C62.3117 169.791 42.628 185.035 18.9553 181.733C-2.62891 178.722 -7.26716 154.36 15.8845 147.989Z" fill="#849A72"/>
<path d="M77.7895 161.241C55.9005 161.986 17.2555 162.63 0.896484 164.947" stroke="#145855" stroke-width="0.8" stroke-linecap="round" stroke-linejoin="round"/>
<path d="M35.0412 147.525L46.4327 162.207L42.6356 179.335" stroke="#145855" stroke-width="0.8" stroke-linecap="round" stroke-linejoin="round"/>
<path d="M14.9927 148.559L26.0212 162.83L18.5018 181.106" stroke="#145855" stroke-width="0.8" stroke-linecap="round" stroke-linejoin="round"/>
<path d="M55.1973 152.328L63.1387 161.623L60.7809 171.166" stroke="#145855" stroke-width="0.8" stroke-linecap="round" stroke-linejoin="round"/>
</g>
<mask id="mask2_2_609" style="mask-type:alpha" maskUnits="userSpaceOnUse" x="3" y="82" width="68" height="51">
<path d="M30.3506 86.6923C47.8662 97.5227 64.3386 122.03 70.3854 132.93C53.8431 132.097 18.2146 126.807 8.03904 112.31C-4.6804 94.1903 8.45608 73.1542 30.3506 86.6923Z" fill="#849A72"/>
</mask>
<g mask="url(#mask2_2_609)">
<path d="M30.3506 86.6923C47.8662 97.5227 64.3386 122.03 70.3854 132.93C53.8431 132.097 18.2146 126.807 8.03904 112.31C-4.6804 94.1903 8.45608 73.1542 30.3506 86.6923Z" fill="#849A72"/>
<path d="M70.8979 133.17C53.01 122.434 14.5625 98.1102 3.87622 86.6997" stroke="#145855" stroke-width="0.8" stroke-linecap="round" stroke-linejoin="round"/>
<path d="M41.7786 129.719L55.3351 123.469V109.927" stroke="#145855" stroke-width="0.8" stroke-linecap="round" stroke-linejoin="round"/>
<path d="M22.8 123.475L41.8144 114.709V92.5858" stroke="#145855" stroke-width="0.8" stroke-linecap="round" stroke-linejoin="round"/>
<path d="M4.25928 109.514L24.6404 103.164V80.7505" stroke="#145855" stroke-width="0.8" stroke-linecap="round" stroke-linejoin="round"/>
</g>
<mask id="mask3_2_609" style="mask-type:alpha" maskUnits="userSpaceOnUse" x="44" y="0" width="43" height="95">
<path d="M46.4069 18.2071C38.741 42.0099 56.2665 79.0319 65.9874 94.5675C73.8337 81.9448 88.9012 50.9568 86.4016 27.9863C83.2771 -0.7269 55.9892 -11.5463 46.4069 18.2071Z" fill="#849A72"/>
</mask>
<g mask="url(#mask3_2_609)">
<path d="M46.4069 18.2071C38.741 42.0099 56.2665 79.0319 65.9874 94.5675C73.8337 81.9448 88.9012 50.9568 86.4016 27.9863C83.2771 -0.7269 55.9892 -11.5463 46.4069 18.2071Z" fill="#849A72"/>
<path d="M65.3313 -1.71216C61.5349 21.9531 64.294 85.8562 66.5859 96.9601" stroke="#145855" stroke-width="0.8" stroke-linecap="round" stroke-linejoin="round"/>
<path d="M50.4662 68.0099L64.6286 74.6972L80.851 68.0099" stroke="#145855" stroke-width="0.8" stroke-linecap="round" stroke-linejoin="round"/>
<path d="M45.1105 46.1366L63.8444 54.2802L86.9158 42.6713" stroke="#145855" stroke-width="0.8" stroke-linecap="round" stroke-linejoin="round"/>
<path d="M42.5123 22.9066L63.349 33.4303L85.5912 18.931" stroke="#145855" stroke-width="0.8" stroke-linecap="round" stroke-linejoin="round"/>
</g>
<mask id="mask4_2_609" style="mask-type:alpha" maskUnits="userSpaceOnUse" x="67" y="60" width="64" height="55">
<path d="M100.854 64.2884C83.1863 74.2465 71.3027 101.736 67.5693 114.237C80.0837 112.451 108.709 104.972 123.095 89.3413C141.078 69.8032 122.938 51.8408 100.854 64.2884Z" fill="#849A72"/>
</mask>
<g mask="url(#mask4_2_609)">
<path d="M100.854 64.2884C83.1863 74.2465 71.3027 101.736 67.5693 114.237C80.0837 112.451 108.709 104.972 123.095 89.3413C141.078 69.8032 122.938 51.8408 100.854 64.2884Z" fill="#849A72"/>
<path d="M66.8225 114.306C82.0297 102.475 115.789 76.0323 128.077 63.0256" stroke="#145855" stroke-width="0.8" stroke-linecap="round" stroke-linejoin="round"/>
<path d="M76.6746 88.7715L79.5151 104.015L94.3307 108.518" stroke="#145855" stroke-width="0.8" stroke-linecap="round" stroke-linejoin="round"/>
<path d="M88.0579 73.6875L93.4573 92.713L115.354 97.5068" stroke="#145855" stroke-width="0.8" stroke-linecap="round" stroke-linejoin="round"/>
<path d="M103.505 60.8048L109.804 79.3809L129.294 82.3626" stroke="#145855" stroke-width="0.8" stroke-linecap="round" stroke-linejoin="round"/>
</g>
<mask id="mask5_2_609" style="mask-type:alpha" maskUnits="userSpaceOnUse" x="75" y="110" width="76" height="43">
<path d="M119.212 113.007C99.4284 120.532 81.6592 140.743 75.2476 149.908C88.4868 152.561 119.911 155.021 139.695 143.637C164.425 129.407 143.942 103.601 119.212 113.007Z" fill="#849A72"/>
</mask>
<g mask="url(#mask5_2_609)">
<path d="M119.212 113.007C99.4284 120.532 81.6592 140.743 75.2476 149.908C88.4868 152.561 119.911 155.021 139.695 143.637C164.425 129.407 143.942 103.601 119.212 113.007Z" fill="#849A72"/>
<path d="M73.8948 150.201C93.6884 143.418 136.704 127.468 150.419 117.938" stroke="#145855" stroke-width="0.8" stroke-linecap="round" stroke-linejoin="round"/>
<path d="M92.0663 128.413L90.6584 144.173L106.357 153.093" stroke="#145855" stroke-width="0.8" stroke-linecap="round" stroke-linejoin="round"/>
<path d="M111.702 114.666L110.234 136.845L130.603 149.126" stroke="#145855" stroke-width="0.8" stroke-linecap="round" stroke-linejoin="round"/>
</g>
<mask id="mask6_2_609" style="mask-type:alpha" maskUnits="userSpaceOnUse" x="89" y="165" width="39" height="21">
<path d="M115.163 165.886C105.141 168.016 94.1067 179.375 89.842 184.789C94.8173 186.297 109.692 186.947 119.161 182.393C133.554 175.471 127.69 163.224 115.163 165.886Z" fill="#849A72"/>
</mask>
<g mask="url(#mask6_2_609)">
<path d="M115.163 165.886C105.141 168.016 94.1067 179.375 89.842 184.789C94.8173 186.297 109.692 186.947 119.161 182.393C133.554 175.471 127.69 163.224 115.163 165.886Z" fill="#849A72"/>
<path d="M88.926 185.199C96.8957 183.028 115.851 176.759 127.914 169.052" stroke="#145855" stroke-width="0.8" stroke-linecap="round" stroke-linejoin="round"/>
<path d="M102.3 171.695L101.65 181.161L110.383 185.894" stroke="#145855" stroke-width="0.8" stroke-linecap="round" stroke-linejoin="round"/>
</g>
<path d="M140.808 246.336C103.061 214.428 67.8405 166.952 65.9836 92.9848" stroke="#849A72" stroke-width="1.5" stroke-linecap="round" stroke-linejoin="round"/>
<mask id="mask7_2_609" style="mask-type:alpha" maskUnits="userSpaceOnUse" x="110" y="255" width="43" height="37">
<path d="M117.219 271.109C129.58 260.525 145.836 256.286 153 255.725C150.833 262.3 145.698 273.428 133.81 285.53C118.951 300.658 99.2168 286.522 117.219 271.109Z" fill="#849A72"/>
</mask>
<g mask="url(#mask7_2_609)">
<path d="M117.219 271.109C129.58 260.525 145.836 256.286 153 255.725C150.833 262.3 145.698 273.428 133.81 285.53C118.951 300.658 99.2168 286.522 117.219 271.109Z" fill="#849A72"/>
<path d="M152.306 256.545C141.653 266.214 118.107 286.784 109.152 291.711" stroke="#145855" stroke-width="0.8" stroke-linecap="round" stroke-linejoin="round"/>
<path d="M109.763 276.763L125.252 279.909V293.283" stroke="#145855" stroke-width="0.8" stroke-linecap="round" stroke-linejoin="round"/>
</g>
</svg>
