<svg width="173" height="153" viewBox="0 0 173 153" fill="none" xmlns="http://www.w3.org/2000/svg">
<mask id="mask0_2_676" style="mask-type:alpha" maskUnits="userSpaceOnUse" x="-10" y="0" width="37" height="79">
<path d="M25.0109 15.5283C30.1078 34.0496 18.3899 64.948 11.8937 78.082C3.20908 61.9555 -12.0348 42.2718 -8.73293 18.5991C-5.72237 -2.98511 18.6396 -7.62336 25.0109 15.5283Z" fill="#849A72"/>
</mask>
<g mask="url(#mask0_2_676)">
<path d="M25.0109 15.5283C30.1078 34.0496 18.3899 64.948 11.8937 78.082C3.20908 61.9555 -12.0348 42.2718 -8.73293 18.5991C-5.72237 -2.98511 18.6396 -7.62336 25.0109 15.5283Z" fill="#849A72"/>
<path d="M11.7586 77.4333C11.0137 55.5443 10.37 16.8993 8.05325 0.540283" stroke="#145855" stroke-width="0.8" stroke-linecap="round" stroke-linejoin="round"/>
<path d="M25.4745 34.685L10.7931 46.0765L-6.33528 42.2794" stroke="#145855" stroke-width="0.8" stroke-linecap="round" stroke-linejoin="round"/>
<path d="M24.4406 14.6365L10.1703 25.665L-8.10562 18.1456" stroke="#145855" stroke-width="0.8" stroke-linecap="round" stroke-linejoin="round"/>
<path d="M20.6716 54.8411L11.3767 62.7825L1.83386 60.4247" stroke="#145855" stroke-width="0.8" stroke-linecap="round" stroke-linejoin="round"/>
</g>
<mask id="mask1_2_676" style="mask-type:alpha" maskUnits="userSpaceOnUse" x="40" y="2" width="51" height="69">
<path d="M86.3078 29.9944C75.4773 47.51 50.9699 63.9824 40.07 70.0292C40.9031 53.4869 46.1934 17.8584 60.6896 7.68284C78.8098 -5.0366 99.8459 8.09987 86.3078 29.9944Z" fill="#849A72"/>
</mask>
<g mask="url(#mask1_2_676)">
<path d="M86.3078 29.9944C75.4773 47.51 50.9699 63.9824 40.07 70.0292C40.9031 53.4869 46.1934 17.8584 60.6896 7.68284C78.8098 -5.0366 99.8459 8.09987 86.3078 29.9944Z" fill="#849A72"/>
<path d="M39.8301 70.5417C50.5658 52.6538 74.8898 14.2063 86.3004 3.52002" stroke="#145855" stroke-width="0.8" stroke-linecap="round" stroke-linejoin="round"/>
<path d="M43.2811 41.4224L49.531 54.9789L63.0726 54.9789" stroke="#145855" stroke-width="0.8" stroke-linecap="round" stroke-linejoin="round"/>
<path d="M49.5252 22.4438L58.291 41.4582L80.4143 41.4582" stroke="#145855" stroke-width="0.8" stroke-linecap="round" stroke-linejoin="round"/>
<path d="M63.4862 3.90307L69.8365 24.2842L92.2496 24.2842" stroke="#145855" stroke-width="0.8" stroke-linecap="round" stroke-linejoin="round"/>
</g>
<mask id="mask2_2_676" style="mask-type:alpha" maskUnits="userSpaceOnUse" x="78" y="44" width="95" height="43">
<path d="M154.793 46.0507C130.99 38.3848 93.9681 55.9103 78.4325 65.6312C91.0552 73.4775 122.043 88.545 145.014 86.0454C173.727 82.9209 184.546 55.633 154.793 46.0507Z" fill="#849A72"/>
</mask>
<g mask="url(#mask2_2_676)">
<path d="M154.793 46.0507C130.99 38.3848 93.9681 55.9103 78.4325 65.6312C91.0552 73.4775 122.043 88.545 145.014 86.0454C173.727 82.9209 184.546 55.633 154.793 46.0507Z" fill="#849A72"/>
<path d="M174.712 64.9751C151.047 61.1787 87.1438 63.9378 76.0399 66.2297" stroke="#145855" stroke-width="0.8" stroke-linecap="round" stroke-linejoin="round"/>
<path d="M104.99 50.11L98.3029 64.2724L104.99 80.4948" stroke="#145855" stroke-width="0.8" stroke-linecap="round" stroke-linejoin="round"/>
<path d="M126.863 44.7543L118.72 63.4882L130.329 86.5596" stroke="#145855" stroke-width="0.8" stroke-linecap="round" stroke-linejoin="round"/>
<path d="M150.093 42.1561L139.57 62.9928L154.069 85.235" stroke="#145855" stroke-width="0.8" stroke-linecap="round" stroke-linejoin="round"/>
</g>
<mask id="mask3_2_676" style="mask-type:alpha" maskUnits="userSpaceOnUse" x="58" y="67" width="55" height="64">
<path d="M108.712 100.497C98.7534 82.8301 71.2636 70.9465 58.7634 67.2131C60.5492 79.7275 68.0282 108.353 83.6587 122.739C103.197 140.722 121.159 122.581 108.712 100.497Z" fill="#849A72"/>
</mask>
<g mask="url(#mask3_2_676)">
<path d="M108.712 100.497C98.7534 82.8301 71.2636 70.9465 58.7634 67.2131C60.5492 79.7275 68.0282 108.353 83.6587 122.739C103.197 140.722 121.159 122.581 108.712 100.497Z" fill="#849A72"/>
<path d="M58.6935 66.4663C70.5247 81.6735 96.9677 115.433 109.974 127.721" stroke="#145855" stroke-width="0.8" stroke-linecap="round" stroke-linejoin="round"/>
<path d="M84.2284 76.3184L68.9853 79.1589L64.4814 93.9745" stroke="#145855" stroke-width="0.8" stroke-linecap="round" stroke-linejoin="round"/>
<path d="M99.3124 87.7017L80.2869 93.1011L75.4931 114.998" stroke="#145855" stroke-width="0.8" stroke-linecap="round" stroke-linejoin="round"/>
<path d="M112.195 103.149L93.619 109.448L90.6373 128.938" stroke="#145855" stroke-width="0.8" stroke-linecap="round" stroke-linejoin="round"/>
</g>
<mask id="mask4_2_676" style="mask-type:alpha" maskUnits="userSpaceOnUse" x="20" y="74" width="43" height="77">
<path d="M59.9933 118.856C52.4684 99.0722 32.2573 81.303 23.0923 74.8913C20.4393 88.1306 17.9792 119.555 29.363 139.339C43.5928 164.069 69.3994 143.586 59.9933 118.856Z" fill="#849A72"/>
</mask>
<g mask="url(#mask4_2_676)">
<path d="M59.9933 118.856C52.4684 99.0722 32.2573 81.303 23.0923 74.8913C20.4393 88.1306 17.9792 119.555 29.363 139.339C43.5928 164.069 69.3994 143.586 59.9933 118.856Z" fill="#849A72"/>
<path d="M22.7989 73.5386C29.5824 93.3322 45.5317 136.348 55.0615 150.063" stroke="#145855" stroke-width="0.8" stroke-linecap="round" stroke-linejoin="round"/>
<path d="M44.5867 91.7101L28.827 90.3022L19.9074 106.001" stroke="#145855" stroke-width="0.8" stroke-linecap="round" stroke-linejoin="round"/>
<path d="M58.3342 111.345L36.155 109.877L23.874 130.247" stroke="#145855" stroke-width="0.8" stroke-linecap="round" stroke-linejoin="round"/>
</g>
<mask id="mask5_2_676" style="mask-type:alpha" maskUnits="userSpaceOnUse" x="-13" y="89" width="21" height="39">
<path d="M7.1138 114.807C4.98392 104.785 -6.37539 93.7505 -11.7888 89.4858C-13.2975 94.4611 -13.9466 109.336 -9.39271 118.805C-2.47059 133.198 9.77615 127.334 7.1138 114.807Z" fill="#849A72"/>
</mask>
<g mask="url(#mask5_2_676)">
<path d="M7.1138 114.807C4.98392 104.785 -6.37539 93.7505 -11.7888 89.4858C-13.2975 94.4611 -13.9466 109.336 -9.39271 118.805C-2.47059 133.198 9.77615 127.334 7.1138 114.807Z" fill="#849A72"/>
<path d="M-12.1991 88.5698C-10.028 96.5395 -3.75899 115.495 3.94836 127.558" stroke="#145855" stroke-width="0.8" stroke-linecap="round" stroke-linejoin="round"/>
<path d="M1.30511 101.944L-8.16065 101.294L-12.8935 110.027" stroke="#145855" stroke-width="0.8" stroke-linecap="round" stroke-linejoin="round"/>
<path d="M7.15118 112.257L-3.521 112.257L-8.8107 121.641" stroke="#145855" stroke-width="0.8" stroke-linecap="round" stroke-linejoin="round"/>
</g>
<path d="M-73.3364 140.452C-41.4284 102.705 6.04849 67.4843 80.0152 65.6274" stroke="#849A72" stroke-width="1.5" stroke-linecap="round" stroke-linejoin="round"/>
</svg>
